<svg width="11" height="19" viewBox="0 0 11 19" fill="none" xmlns="http://www.w3.org/2000/svg">
<path id="Vector" d="M1.93806 7.72167H1.82679C1.2488 7.72167 0.670539 7.72034 0.092546 7.72326C0.0173882 7.72352 -0.000264488 7.70071 2.97776e-06 7.62908C0.00241017 6.8653 0.0021427 6.10178 0.000270443 5.338C0.000270443 5.28202 0.0139112 5.25416 0.0706138 5.23294C1.5604 4.67953 2.61154 3.67088 3.23553 2.22211C3.49899 1.61034 3.66187 0.971244 3.74746 0.311987C3.75388 0.261846 3.75843 0.211175 3.76645 0.161034C3.78544 0.0424472 3.83546 0 3.95742 0C4.47149 0 4.98556 0 5.49989 0C5.87087 0 6.24158 0 6.61255 0H6.7182V0.106648C6.7182 1.63899 6.7182 3.1716 6.7182 4.70394C6.7182 4.85436 6.70295 4.83606 6.85514 4.83606C8.04723 4.83659 9.23906 4.83606 10.4312 4.83606C10.4689 4.83606 10.5063 4.83606 10.547 4.83606V7.71795H6.71285C6.71071 7.75722 6.7075 7.78666 6.7075 7.81585C6.7075 9.73897 6.70723 11.6621 6.7075 13.5852C6.7075 13.9044 6.74682 14.2171 6.86397 14.5169C7.08249 15.0754 7.50161 15.3805 8.0903 15.468C8.55355 15.537 9.00824 15.4717 9.45785 15.3669C9.67048 15.3176 9.87777 15.2468 10.096 15.1831C10.1022 15.2001 10.1113 15.2255 10.1201 15.2513C10.409 16.1005 10.697 16.9502 10.9886 17.7984C11.0108 17.8634 11.0011 17.9053 10.9557 17.9533C10.7839 18.1332 10.5742 18.2581 10.3536 18.3664C9.75286 18.6611 9.11549 18.838 8.45405 18.9301C7.5 19.0627 6.55398 19.011 5.63042 18.737C3.92238 18.2297 2.77763 17.1301 2.19696 15.4577C2.01589 14.9358 1.93699 14.3957 1.93726 13.8436C1.93832 11.8417 1.93752 9.84005 1.93752 7.83813V7.72087L1.93806 7.72167Z" fill="#FCFAEF"/>
</svg>
