<svg width="17" height="21" viewBox="0 0 17 21" fill="none" xmlns="http://www.w3.org/2000/svg">
<path id="Vector" d="M8.25 1.375C6.42664 1.375 4.67795 2.09933 3.38864 3.38864C2.09933 4.67795 1.375 6.42664 1.375 8.25V9.625H2.75C3.11467 9.625 3.46441 9.76987 3.72227 10.0277C3.98013 10.2856 4.125 10.6353 4.125 11V15.125C4.125 15.4897 3.98013 15.8394 3.72227 16.0973C3.46441 16.3551 3.11467 16.5 2.75 16.5H1.375C1.01033 16.5 0.660591 16.3551 0.402728 16.0973C0.144866 15.8394 0 15.4897 0 15.125V8.25C-1.6144e-08 7.16659 0.213392 6.0938 0.627994 5.09286C1.0426 4.09193 1.65029 3.18245 2.41637 2.41637C3.18245 1.65029 4.09193 1.0426 5.09286 0.627994C6.0938 0.213393 7.16659 0 8.25 0C9.33341 0 10.4062 0.213393 11.4071 0.627994C12.4081 1.0426 13.3175 1.65029 14.0836 2.41637C14.8497 3.18245 15.4574 4.09193 15.872 5.09286C16.2866 6.0938 16.5 7.16659 16.5 8.25V16.5C16.5 17.4117 16.1378 18.286 15.4932 18.9307C14.8485 19.5753 13.9742 19.9375 13.0625 19.9375H10.1283C10.0076 20.1465 9.834 20.3201 9.62498 20.4408C9.41596 20.5615 9.17886 20.625 8.9375 20.625H7.5625C7.19783 20.625 6.84809 20.4801 6.59023 20.2223C6.33237 19.9644 6.1875 19.6147 6.1875 19.25C6.1875 18.8853 6.33237 18.5356 6.59023 18.2777C6.84809 18.0199 7.19783 17.875 7.5625 17.875H8.9375C9.17886 17.875 9.41596 17.9385 9.62498 18.0592C9.834 18.1799 10.0076 18.3535 10.1283 18.5625H13.0625C13.6095 18.5625 14.1341 18.3452 14.5209 17.9584C14.9077 17.5716 15.125 17.047 15.125 16.5H13.75C13.3853 16.5 13.0356 16.3551 12.7777 16.0973C12.5199 15.8394 12.375 15.4897 12.375 15.125V11C12.375 10.6353 12.5199 10.2856 12.7777 10.0277C13.0356 9.76987 13.3853 9.625 13.75 9.625H15.125V8.25C15.125 7.34716 14.9472 6.45316 14.6017 5.61905C14.2562 4.78494 13.7498 4.02704 13.1114 3.38864C12.473 2.75024 11.7151 2.24383 10.8809 1.89833C10.0468 1.55283 9.15284 1.375 8.25 1.375Z" fill="black"/>
</svg>
