<svg width="14" height="16" viewBox="0 0 14 16" fill="none" xmlns="http://www.w3.org/2000/svg">
<path fill-rule="evenodd" clip-rule="evenodd" d="M7 0C6.31 0 5.157 0.265 4.072 0.56C2.962 0.86 1.843 1.215 1.185 1.43C0.909896 1.52085 0.665996 1.68747 0.481322 1.9107C0.296648 2.13394 0.178693 2.40474 0.141005 2.692C-0.454994 7.169 0.928004 10.487 2.606 12.682C3.31758 13.621 4.16603 14.4478 5.123 15.135C5.509 15.408 5.867 15.617 6.171 15.76C6.451 15.892 6.752 16 7 16C7.248 16 7.548 15.892 7.829 15.76C8.19548 15.5819 8.54609 15.3728 8.877 15.135C9.83399 14.4479 10.6824 13.621 11.394 12.682C13.072 10.487 14.455 7.169 13.859 2.692C13.8214 2.4046 13.7035 2.13364 13.5188 1.91023C13.3341 1.68683 13.0902 1.52003 12.815 1.429C11.8598 1.11581 10.8972 0.825729 9.928 0.559C8.843 0.266 7.69 0 7 0ZM7 5C7.35424 4.99947 7.69723 5.12433 7.96824 5.35246C8.23924 5.58059 8.42076 5.89727 8.48064 6.24641C8.54053 6.59555 8.47492 6.95462 8.29543 7.26002C8.11595 7.56542 7.83417 7.79745 7.5 7.915L7.885 9.905C7.89901 9.97738 7.89683 10.052 7.87864 10.1234C7.86044 10.1948 7.82668 10.2614 7.77975 10.3182C7.73283 10.3751 7.67392 10.4209 7.60723 10.4523C7.54054 10.4837 7.46772 10.5 7.394 10.5H6.606C6.53236 10.4999 6.45966 10.4835 6.3931 10.452C6.32653 10.4205 6.26774 10.3747 6.22093 10.3179C6.17412 10.261 6.14044 10.1945 6.1223 10.1232C6.10416 10.0518 6.10201 9.9773 6.116 9.905L6.5 7.915C6.16583 7.79745 5.88405 7.56542 5.70457 7.26002C5.52508 6.95462 5.45947 6.59555 5.51936 6.24641C5.57924 5.89727 5.76076 5.58059 6.03176 5.35246C6.30277 5.12433 6.64576 4.99947 7 5Z" fill="#2F2F2F"/>
</svg>
